<?xml version="1.0" standalone="no"?>
<!DOCTYPE svg PUBLIC "-//W3C//DTD SVG 20010904//EN"
 "http://www.w3.org/TR/2001/REC-SVG-20010904/DTD/svg10.dtd">
<svg version="1.0" xmlns="http://www.w3.org/2000/svg"
 width="1920.000000pt" height="1080.000000pt" viewBox="0 0 1920.000000 1080.000000"
 preserveAspectRatio="xMidYMid meet">

<g transform="translate(0.000000,1080.000000) scale(0.100000,-0.100000)"
fill="#000000" stroke="none">
<path d="M8197 7314 c-61 -19 -128 -84 -145 -140 -9 -30 -12 -156 -12 -454 l0
-412 -22 5 c-13 3 -57 14 -98 25 -134 35 -138 35 -116 20 17 -13 15 -18 -38
-79 -68 -76 -94 -122 -143 -243 -34 -85 -36 -99 -39 -216 -2 -69 -1 -117 2
-107 6 18 24 24 24 7 0 -5 5 -10 10 -10 6 0 10 6 10 14 0 9 25 20 69 31 l68
16 -18 36 c-79 155 30 337 202 338 88 0 89 -3 89 -175 l0 -148 -32 -7 c-139
-28 -345 -79 -353 -87 -7 -7 -3 -8 13 -3 26 8 27 5 6 -77 -11 -41 -17 -102
-16 -173 1 -171 43 -304 139 -438 19 -27 33 -51 30 -53 -2 -2 -21 -11 -43 -19
-37 -14 -37 -15 -6 -9 18 3 67 17 109 30 43 13 94 27 115 30 l38 7 0 -669 c0
-453 4 -682 11 -709 14 -52 90 -126 145 -143 58 -17 4628 -18 4685 0 52 15
117 73 140 122 18 39 19 112 19 1775 0 1343 -3 1743 -12 1775 -7 24 -30 59
-54 83 -80 79 129 73 -2438 72 -1996 0 -2297 -2 -2339 -15z m4708 -31 c50 -27
80 -58 100 -105 13 -33 15 -229 15 -1768 0 -1542 -2 -1735 -16 -1768 -20 -49
-60 -90 -109 -113 -39 -18 -123 -19 -2355 -19 -2218 0 -2317 1 -2355 19 -51
23 -101 80 -115 130 -7 27 -9 582 -8 1772 l3 1734 24 38 c28 46 88 88 139 98
20 4 1072 6 2337 5 l2300 -1 40 -22z m-4865 -1878 l0 -225 -31 0 c-84 0 -176
59 -210 134 -20 45 -25 130 -9 171 17 45 74 107 115 126 22 10 61 19 88 19
l47 0 0 -225z"/>
<path d="M6470 6789 c-75 -9 -101 -21 -137 -63 -64 -72 -53 -196 25 -278 25
-27 52 -37 52 -19 0 4 -5 22 -11 40 -9 25 -8 36 5 56 9 14 25 25 35 25 10 0
21 6 24 14 3 8 21 19 41 26 29 9 47 8 108 -9 50 -14 82 -18 102 -13 33 9 47
32 20 32 -15 0 -15 3 4 23 28 30 28 37 -3 37 -21 0 -24 3 -19 28 15 73 -97
120 -246 101z"/>
<path d="M7028 6483 c7 -3 16 -2 19 1 4 3 -2 6 -13 5 -11 0 -14 -3 -6 -6z"/>
<path d="M7088 6483 c7 -3 16 -2 19 1 4 3 -2 6 -13 5 -11 0 -14 -3 -6 -6z"/>
<path d="M7163 6473 c9 -2 23 -2 30 0 6 3 -1 5 -18 5 -16 0 -22 -2 -12 -5z"/>
<path d="M6959 6443 l-24 -28 28 24 c15 14 27 26 27 28 0 8 -8 1 -31 -24z"/>
<path d="M7215 6466 c16 -8 228 -37 232 -32 2 2 -24 9 -59 15 -72 12 -188 23
-173 17z"/>
<path d="M6915 6378 c-12 -38 -26 -101 -22 -104 2 -3 11 22 20 56 8 33 13 60
11 60 -3 0 -7 -6 -9 -12z"/>
<path d="M6309 6282 c-54 -40 -71 -47 -128 -53 -79 -8 -101 -29 -101 -94 0
-42 39 -506 78 -940 11 -115 18 -237 16 -270 -5 -71 -47 -893 -69 -1354 -9
-178 -15 -325 -13 -326 2 -2 37 -5 77 -7 l75 -3 97 440 c54 242 126 564 159
715 34 151 64 282 67 290 5 13 6 13 9 0 8 -34 98 -967 130 -1330 10 -117 3
-110 93 -110 l79 0 6 238 c16 629 33 942 56 1032 17 66 41 408 30 440 -1 3 -3
18 -5 33 -9 65 -28 134 -44 153 -9 11 -33 32 -54 46 l-38 25 55 49 54 49 -35
34 c-24 24 -31 36 -23 41 7 4 9 13 5 20 -5 8 -4 11 2 7 6 -4 14 0 17 9 9 22 8
26 -6 18 -7 -5 -8 -3 -4 5 5 7 10 10 13 7 3 -3 19 6 35 19 16 14 36 25 45 25
8 0 13 6 11 13 -3 6 -20 57 -38 112 -33 100 -60 142 -83 129 -6 -4 -9 -4 -5 1
4 4 -6 18 -22 32 -16 13 -32 33 -35 44 -4 10 -10 17 -14 15 -9 -6 4 106 18
152 9 30 7 36 -22 63 -18 16 -61 43 -96 60 -60 29 -65 35 -93 98 -17 36 -31
67 -32 68 -1 1 -48 13 -104 27 l-102 24 -61 -46z m478 -409 c-3 -10 -5 -2 -5
17 0 19 2 27 5 18 2 -10 2 -26 0 -35z"/>
<path d="M6983 5983 c-10 -10 -13 -14 -5 -8 8 5 41 8 75 7 72 -3 73 3 1 12
-41 5 -55 3 -71 -11z"/>
<path d="M7133 5973 c9 -2 23 -2 30 0 6 3 -1 5 -18 5 -16 0 -22 -2 -12 -5z"/>
<path d="M7218 5963 c6 -2 18 -2 25 0 6 3 1 5 -13 5 -14 0 -19 -2 -12 -5z"/>
<path d="M7308 5953 c7 -3 16 -2 19 1 4 3 -2 6 -13 5 -11 0 -14 -3 -6 -6z"/>
<path d="M7376 5931 c4 -8 11 -28 15 -45 6 -29 7 -29 8 -5 1 14 -6 34 -15 45
-8 10 -12 13 -8 5z"/>
<path d="M6972 5864 c10 -10 20 -16 22 -13 3 3 -5 11 -17 18 -21 13 -21 12 -5
-5z"/>
<path d="M7028 5843 c7 -3 16 -2 19 1 4 3 -2 6 -13 5 -11 0 -14 -3 -6 -6z"/>
<path d="M7369 5833 c-13 -16 -12 -17 4 -4 9 7 17 15 17 17 0 8 -8 3 -21 -13z"/>
<path d="M7118 5833 c7 -3 16 -2 19 1 4 3 -2 6 -13 5 -11 0 -14 -3 -6 -6z"/>
<path d="M7208 5823 c7 -3 16 -2 19 1 4 3 -2 6 -13 5 -11 0 -14 -3 -6 -6z"/>
<path d="M7303 5813 c9 -2 25 -2 35 0 9 3 1 5 -18 5 -19 0 -27 -2 -17 -5z"/>
<path d="M6938 5733 c7 -3 16 -2 19 1 4 3 -2 6 -13 5 -11 0 -14 -3 -6 -6z"/>
<path d="M7288 5683 c7 -3 16 -2 19 1 4 3 -2 6 -13 5 -11 0 -14 -3 -6 -6z"/>
<path d="M7345 5670 c11 -5 31 -9 45 -10 25 -1 25 -1 -5 -16 -34 -17 -22 -14
53 11 29 9 51 19 49 21 -2 3 -16 0 -31 -6 -18 -6 -41 -7 -69 0 -51 12 -69 12
-42 0z"/>
<path d="M7095 5540 c-22 -11 -29 -17 -15 -14 29 8 80 33 65 33 -5 0 -28 -8
-50 -19z"/>
<path d="M7295 5085 c-27 -13 -45 -23 -40 -24 6 0 33 11 60 24 28 13 46 23 40
24 -5 0 -32 -11 -60 -24z"/>
<path d="M7542 5080 c0 -14 2 -19 5 -12 2 6 2 18 0 25 -3 6 -5 1 -5 -13z"/>
<path d="M7136 5011 c-10 -11 -16 -26 -13 -33 4 -10 6 -10 6 1 1 8 8 23 18 33
9 10 14 18 11 18 -3 0 -13 -9 -22 -19z"/>
<path d="M7365 4960 c-22 -11 -29 -17 -15 -14 29 8 80 33 65 33 -5 0 -28 -8
-50 -19z"/>
<path d="M7121 4950 c0 -8 4 -22 9 -30 12 -18 12 -2 0 25 -6 13 -9 15 -9 5z"/>
<path d="M7442 4859 c-29 -12 -51 -23 -49 -25 5 -5 117 35 117 42 0 7 -13 4
-68 -17z"/>
<path d="M7000 4833 c0 -5 10 -18 23 -29 l22 -19 -20 25 c-11 14 -21 27 -22
29 -2 2 -3 0 -3 -6z"/>
<path d="M7077 4759 c20 -20 88 -23 119 -4 16 9 20 13 9 10 -47 -15 -76 -17
-107 -6 -23 8 -29 8 -21 0z"/>
<path d="M6090 3105 l0 -55 140 0 c139 0 140 0 140 23 0 26 -26 60 -57 76 -12
6 -67 11 -122 11 l-101 0 0 -55z"/>
<path d="M6710 3105 l0 -55 145 0 c159 0 160 0 125 58 -27 44 -54 52 -171 52
l-99 0 0 -55z"/>
<path d="M12270 1500 l0 -260 44 0 44 0 3 124 c4 115 6 126 28 150 29 31 80
35 104 8 14 -15 17 -42 17 -150 l0 -132 46 0 45 0 -3 160 c-3 158 -3 160 -30
186 -40 40 -110 44 -161 10 -21 -14 -40 -26 -42 -26 -3 0 -5 43 -5 95 l0 95
-45 0 -45 0 0 -260z"/>
<path d="M13280 1500 l0 -260 45 0 44 0 3 82 3 82 60 -82 60 -81 53 -1 53 0
-22 33 c-13 17 -45 61 -71 96 -26 35 -48 67 -48 71 0 4 27 42 60 85 33 43 60
79 60 81 0 2 -22 4 -48 4 -48 0 -48 0 -103 -72 l-54 -71 -3 146 -3 147 -44 0
-45 0 0 -260z"/>
<path d="M10063 1721 c-49 -23 -73 -62 -73 -121 0 -84 45 -124 169 -151 84
-18 115 -65 71 -109 -38 -38 -149 -18 -186 34 -15 21 -15 21 -44 -14 -25 -31
-27 -37 -16 -55 7 -11 35 -31 61 -45 60 -30 171 -34 222 -7 66 35 96 106 74
178 -16 53 -62 85 -150 105 -89 20 -117 40 -107 78 12 50 108 60 167 17 l27
-20 27 35 27 36 -23 16 c-63 45 -174 55 -246 23z"/>
<path d="M6330 1543 c0 -176 2 -190 23 -227 32 -58 84 -81 177 -80 78 1 119
15 153 52 38 42 46 90 47 270 l0 172 -50 0 -50 0 0 -170 c0 -102 -4 -179 -11
-193 -23 -52 -118 -64 -166 -23 l-28 24 -3 181 -3 181 -45 0 -44 0 0 -187z"/>
<path d="M9490 1543 c0 -176 2 -190 23 -227 32 -58 84 -81 177 -80 78 1 119
15 153 52 38 42 46 90 47 270 l0 172 -50 0 -50 0 0 -170 c0 -102 -4 -179 -11
-193 -23 -52 -118 -64 -166 -23 l-28 24 -3 181 -3 181 -45 0 -44 0 0 -187z"/>
<path d="M10440 1484 l0 -246 149 4 c167 3 188 11 224 79 35 65 12 137 -56
179 -28 17 -28 18 -9 31 27 20 42 52 42 94 0 29 -8 45 -34 71 l-34 34 -141 0
-141 0 0 -246z m244 154 c21 -29 20 -57 -1 -80 -12 -14 -31 -18 -80 -18 l-63
0 0 60 0 60 64 0 c56 0 67 -3 80 -22z m30 -200 c22 -31 20 -74 -4 -98 -16 -16
-33 -20 -95 -20 l-75 0 0 70 0 70 79 0 c71 0 82 -2 95 -22z"/>
<path d="M12025 1691 c-26 -5 -30 -11 -33 -44 -3 -32 -7 -37 -28 -37 -21 0
-24 -5 -24 -35 0 -31 3 -35 25 -35 l25 0 0 -102 c0 -121 16 -163 70 -191 36
-18 93 -17 131 3 16 9 17 13 5 42 -12 28 -18 31 -57 32 l-44 1 -3 108 -3 107
51 0 50 0 0 35 0 35 -50 0 -50 0 0 45 c0 49 -2 50 -65 36z"/>
<path d="M6900 1609 c-66 -27 -95 -91 -65 -148 16 -32 46 -50 124 -73 53 -16
71 -39 51 -63 -19 -23 -93 -15 -124 14 l-22 21 -29 -30 c-28 -29 -28 -30 -10
-50 28 -30 115 -53 172 -44 143 21 154 190 16 223 -77 19 -103 32 -103 52 0
40 90 50 121 13 11 -13 16 -11 40 12 24 23 26 30 16 42 -30 37 -130 54 -187
31z"/>
<path d="M7260 1598 c-29 -15 -53 -37 -67 -63 -45 -79 -22 -227 41 -268 71
-47 175 -45 231 5 43 37 44 53 5 73 -30 15 -32 15 -50 -7 -14 -18 -28 -23 -64
-23 -51 0 -84 24 -88 65 l-3 25 123 3 122 3 0 47 c0 96 -53 153 -147 160 -46
3 -67 -1 -103 -20z m135 -73 c45 -44 34 -55 -50 -55 -61 0 -75 3 -75 15 0 25
47 65 75 65 14 0 37 -11 50 -25z"/>
<path d="M8230 1597 c-58 -31 -90 -89 -90 -166 1 -159 133 -242 277 -174 87
41 116 205 52 295 -47 66 -160 87 -239 45z m151 -83 c20 -22 24 -36 24 -91 0
-59 -2 -67 -29 -90 -24 -20 -36 -24 -65 -19 -54 8 -71 36 -71 113 0 55 4 67
25 88 33 34 83 34 116 -1z"/>
<path d="M9173 1610 c-12 -5 -28 -18 -35 -30 -17 -27 -28 -25 -28 5 0 23 -4
25 -45 25 l-45 0 0 -185 0 -185 49 0 49 0 4 126 c3 119 4 127 27 146 17 13 36
18 60 16 34 -3 35 -1 43 36 5 21 7 41 5 42 -10 10 -65 12 -84 4z"/>
<path d="M11145 1608 c-16 -6 -42 -20 -58 -30 -27 -19 -27 -20 -10 -49 20 -34
27 -35 60 -9 18 14 41 20 74 20 40 0 49 -3 55 -22 9 -29 -14 -45 -90 -60 -107
-20 -152 -90 -110 -169 31 -61 136 -75 184 -24 l23 24 19 -24 c15 -20 29 -25
63 -25 24 0 46 4 50 10 10 17 -6 58 -26 63 -17 5 -19 15 -19 106 0 124 -14
165 -64 186 -41 17 -107 18 -151 3z m125 -223 c0 -41 -36 -85 -70 -85 -20 0
-60 32 -60 49 0 19 37 50 70 60 57 15 60 14 60 -24z"/>
<path d="M11512 1603 c-38 -19 -62 -58 -62 -103 0 -42 44 -85 101 -100 63 -16
89 -28 95 -45 19 -49 -74 -62 -127 -18 l-32 27 -23 -29 c-13 -17 -22 -34 -21
-40 7 -20 68 -53 111 -59 116 -18 206 56 180 146 -12 41 -46 65 -124 86 -58
15 -65 20 -65 42 0 38 42 48 94 23 l40 -20 26 27 c24 25 25 27 8 43 -44 39
-142 49 -201 20z"/>
<path d="M12780 1598 c-29 -15 -53 -37 -67 -63 -45 -79 -22 -227 41 -268 71
-47 175 -45 231 5 43 37 44 53 5 73 -30 15 -32 15 -50 -7 -14 -18 -28 -23 -64
-23 -51 0 -84 24 -88 65 l-3 25 123 3 122 3 0 47 c0 96 -53 153 -147 160 -46
3 -67 -1 -103 -20z m135 -73 c45 -44 34 -55 -50 -55 -61 0 -75 3 -75 15 0 25
47 65 75 65 14 0 37 -11 50 -25z"/>
<path d="M13735 1606 c-123 -54 -140 -266 -27 -342 68 -46 179 -38 234 16 15
16 28 32 28 37 0 4 -14 16 -31 26 -30 17 -31 17 -61 -8 -32 -27 -67 -32 -101
-13 -30 16 -46 39 -47 66 0 22 2 22 119 22 99 0 120 3 125 16 9 24 -5 96 -25
130 -34 56 -143 81 -214 50z m114 -69 c14 -6 28 -24 32 -39 l7 -28 -79 0 c-43
0 -79 2 -79 5 0 17 26 55 44 63 28 14 46 14 75 -1z"/>
<path d="M7713 1603 c3 -4 37 -92 77 -195 60 -157 70 -190 60 -208 -15 -27
-54 -42 -95 -34 -31 5 -32 4 -38 -32 -4 -21 -4 -40 -1 -43 3 -4 32 -6 64 -6
62 0 96 17 132 66 15 20 146 354 172 437 7 22 6 23 -39 20 l-48 -3 -45 -128
c-24 -70 -46 -126 -48 -124 -2 2 -23 59 -48 128 l-44 124 -52 3 c-28 2 -50 -1
-47 -5z"/>
<path d="M8590 1456 c0 -139 2 -156 20 -179 42 -53 136 -58 181 -11 29 31 39
30 39 -1 0 -23 4 -25 45 -25 l45 0 0 185 0 185 -50 0 -50 0 0 -117 c0 -74 -5
-127 -13 -143 -17 -34 -69 -48 -102 -26 -25 16 -25 18 -25 151 l0 135 -45 0
-45 0 0 -154z"/>
<path d="M14013 1603 c3 -4 37 -92 77 -195 60 -157 70 -190 60 -208 -15 -27
-54 -42 -95 -34 -31 5 -32 4 -38 -32 -4 -21 -4 -40 -1 -43 3 -4 32 -6 64 -6
62 0 96 17 132 66 15 20 146 354 172 437 7 22 6 23 -39 20 l-48 -3 -45 -128
c-24 -70 -46 -126 -48 -124 -2 2 -23 59 -48 128 l-44 124 -52 3 c-28 2 -50 -1
-47 -5z"/>
</g>
</svg>
