<?xml version="1.0" standalone="no"?>
<!DOCTYPE svg PUBLIC "-//W3C//DTD SVG 20010904//EN"
 "http://www.w3.org/TR/2001/REC-SVG-20010904/DTD/svg10.dtd">
<svg version="1.0" xmlns="http://www.w3.org/2000/svg"
 width="1920.000000pt" height="1080.000000pt" viewBox="0 0 1920.000000 1080.000000"
 preserveAspectRatio="xMidYMid meet">

<g transform="translate(0.000000,1080.000000) scale(0.100000,-0.100000)"
fill="#000000" stroke="none">
<path d="M7365 6760 c-244 -49 -466 -255 -520 -481 -34 -147 -12 -337 56 -470
62 -124 178 -247 221 -235 15 3 33 -5 59 -29 81 -72 200 -115 324 -115 146 0
267 52 367 158 103 111 145 228 135 382 -6 99 -30 169 -86 254 l-39 58 21 37
c34 56 31 178 -5 247 -47 89 -142 157 -265 189 -60 16 -201 18 -268 5z m275
-37 c162 -45 260 -152 260 -286 0 -59 -21 -127 -39 -127 -6 0 -32 16 -58 37
-211 161 -512 124 -688 -86 -138 -166 -154 -406 -40 -595 19 -32 34 -61 31
-63 -8 -9 -107 98 -145 157 -108 167 -135 362 -75 550 96 306 448 499 754 413z"/>
<path d="M8973 5602 c-117 -42 -199 -145 -218 -273 l-7 -46 -49 -6 c-109 -13
-142 -58 -147 -203 l-4 -102 -277 -7 c-152 -4 -337 -8 -411 -9 l-134 -1 -87
150 c-127 218 -143 219 -260 14 -43 -74 -164 -285 -271 -469 -107 -184 -202
-355 -212 -380 -23 -59 -31 -172 -17 -239 26 -121 105 -229 214 -291 l56 -32
3 -463 c3 -439 4 -464 22 -484 l19 -21 -842 0 c-559 0 -840 -3 -836 -10 4 -7
660 -10 1935 -10 1275 0 1931 3 1935 10 4 7 -263 10 -795 10 l-801 0 20 26
c21 26 21 37 21 483 l0 456 57 30 c156 81 255 260 240 435 -7 87 -28 135 -140
329 -53 91 -93 169 -91 173 3 4 78 8 167 9 89 1 235 4 325 8 l162 6 0 -88 c0
-113 14 -166 56 -216 61 -71 71 -72 485 -69 l366 3 41 29 c26 18 51 47 67 79
l25 51 0 338 c0 371 -2 387 -58 426 -16 12 -54 25 -83 30 l-54 7 -7 53 c-29
199 -233 329 -415 264z m166 -68 c93 -27 181 -140 181 -231 l0 -23 -247 2
-248 3 3 35 c4 52 52 139 94 173 33 27 106 55 149 56 8 1 39 -6 68 -15z m10
-510 c56 -47 59 -140 6 -182 -23 -19 -25 -26 -25 -116 l0 -96 -55 0 -55 0 0
94 c0 83 -2 97 -20 109 -46 32 -62 104 -35 157 32 63 129 81 184 34z m-1599
-1794 c0 -437 1 -451 20 -470 l20 -20 -101 0 -100 0 20 26 c21 26 21 37 21
470 l0 444 60 0 60 0 0 -450z"/>
<path d="M10240 1752 c-41 -20 -60 -53 -60 -104 0 -34 -3 -38 -25 -38 -22 0
-25 -4 -25 -35 0 -32 2 -35 30 -35 l30 0 0 -150 0 -150 45 0 45 0 0 150 0 150
55 0 55 0 0 35 0 35 -54 0 c-46 0 -56 3 -61 20 -3 10 -1 29 5 41 10 18 18 21
60 17 47 -5 48 -4 58 29 10 32 9 35 -14 44 -39 14 -106 11 -144 -9z"/>
<path d="M10450 1750 c-24 -24 -25 -38 -4 -68 28 -41 104 -18 104 31 0 23 -36
57 -60 57 -11 0 -29 -9 -40 -20z"/>
<path d="M12520 1750 c-11 -11 -20 -28 -20 -38 0 -43 73 -70 100 -37 18 22 15
66 -6 82 -25 19 -51 16 -74 -7z"/>
<path d="M10640 1540 c0 -255 5 -280 65 -300 20 -6 47 -9 61 -6 20 5 24 13 24
40 0 28 -4 35 -22 38 -23 3 -23 3 -26 226 l-2 222 -50 0 -50 0 0 -220z"/>
<path d="M6580 1485 l0 -245 50 0 50 0 0 105 c0 58 3 105 8 105 4 0 45 -47 91
-105 l85 -105 53 0 c29 0 53 3 53 8 0 4 -43 60 -95 126 -52 65 -95 123 -95
127 0 5 38 56 85 113 47 57 85 107 85 110 0 3 -22 6 -50 6 l-49 0 -83 -102
-83 -103 -3 103 -3 102 -49 0 -50 0 0 -245z"/>
<path d="M13555 1691 c-26 -5 -30 -11 -33 -44 -3 -32 -7 -37 -28 -37 -21 0
-24 -5 -24 -35 0 -31 3 -35 25 -35 l25 0 0 -102 c0 -121 16 -163 70 -191 36
-18 93 -17 131 3 16 9 17 13 5 42 -12 28 -18 31 -57 32 l-44 1 -3 108 -3 107
51 0 50 0 0 35 0 35 -50 0 -50 0 0 45 c0 49 -2 50 -65 36z"/>
<path d="M7100 1597 c-105 -55 -125 -237 -35 -316 79 -69 219 -62 268 13 16
24 16 26 -14 47 l-30 21 -25 -23 c-36 -34 -108 -34 -135 0 -10 13 -19 34 -19
47 0 24 0 24 120 24 l120 0 0 54 c0 127 -130 197 -250 133z m148 -74 c6 -9 12
-25 12 -35 0 -16 -9 -18 -75 -18 -77 0 -84 4 -64 41 21 41 100 48 127 12z"/>
<path d="M7514 1601 c-52 -24 -79 -58 -94 -121 -13 -56 -2 -132 26 -175 37
-56 128 -85 205 -65 44 12 99 54 99 75 0 17 -63 51 -68 36 -7 -22 -63 -43 -98
-37 -36 7 -74 47 -74 77 0 18 10 19 125 19 l125 0 0 43 c0 59 -36 126 -80 149
-44 23 -114 23 -166 -1z m124 -68 c11 -10 23 -28 27 -40 6 -23 5 -23 -74 -23
-51 0 -81 4 -81 11 0 6 13 24 29 40 33 33 69 37 99 12z"/>
<path d="M7995 1610 c-12 -4 -27 -15 -34 -24 -18 -22 -31 -20 -31 4 0 17 -7
20 -45 20 l-45 0 0 -260 0 -260 45 0 45 0 0 96 0 95 32 -22 c44 -32 122 -32
166 0 50 35 66 75 67 166 0 67 -4 87 -24 122 -36 62 -112 90 -176 63z m75 -88
c28 -23 39 -115 20 -161 -15 -37 -59 -56 -97 -44 -66 21 -84 152 -29 200 33
28 76 30 106 5z"/>
<path d="M8944 1609 c-40 -11 -90 -67 -103 -116 -29 -102 6 -200 84 -241 41
-21 141 -20 183 2 98 51 120 220 41 311 -44 50 -125 67 -205 44z m111 -75 c26
-10 45 -59 45 -114 0 -44 -5 -56 -29 -81 -39 -38 -74 -38 -113 1 -29 29 -30
34 -26 97 3 54 8 69 27 84 23 19 65 24 96 13z"/>
<path d="M9864 1606 c-18 -8 -37 -22 -43 -33 -9 -16 -10 -15 -11 10 0 25 -3
27 -45 27 l-45 0 0 -185 0 -185 45 0 45 0 0 110 c0 150 16 180 95 180 30 0 33
3 40 36 3 20 5 37 3 39 -12 12 -58 12 -84 1z"/>
<path d="M10930 1597 c-105 -55 -125 -237 -35 -316 79 -69 219 -62 268 13 16
24 16 26 -14 47 l-30 21 -25 -23 c-36 -34 -108 -34 -135 0 -10 13 -19 34 -19
47 0 24 0 24 120 24 l120 0 0 54 c0 127 -130 197 -250 133z m148 -74 c6 -9 12
-25 12 -35 0 -16 -9 -18 -75 -18 -77 0 -84 4 -64 41 21 41 100 48 127 12z"/>
<path d="M11320 1609 c-66 -27 -95 -91 -65 -148 16 -32 46 -50 124 -73 53 -16
71 -39 51 -63 -19 -23 -93 -15 -124 14 l-22 21 -29 -30 c-28 -29 -28 -30 -10
-50 28 -30 115 -53 172 -44 143 21 154 190 16 223 -77 19 -103 32 -103 52 0
40 90 50 121 13 11 -13 16 -11 40 12 24 23 26 30 16 42 -30 37 -130 54 -187
31z"/>
<path d="M11906 1595 c-34 -23 -36 -23 -36 -5 0 17 -7 20 -50 20 l-50 0 0
-260 0 -260 50 0 50 0 0 97 0 96 25 -23 c21 -20 37 -24 80 -24 66 0 100 21
133 85 20 38 23 55 19 120 -4 90 -26 136 -77 161 -49 25 -100 23 -144 -7z m99
-80 c21 -20 25 -34 25 -87 0 -73 -16 -103 -59 -113 -41 -9 -89 18 -97 53 -3
15 -8 35 -10 44 -8 29 15 96 39 113 32 22 74 19 102 -10z"/>
<path d="M12370 1609 c-14 -5 -33 -20 -42 -32 l-18 -22 0 28 c0 25 -3 27 -45
27 l-45 0 0 -185 0 -185 44 0 44 0 3 119 c4 111 6 121 29 146 20 21 32 26 62
23 36 -3 37 -2 44 36 9 53 -17 68 -76 45z"/>
<path d="M13177 1606 c-37 -13 -77 -42 -77 -55 0 -3 9 -17 19 -30 l18 -24 36
22 c26 16 48 21 79 19 38 -3 43 -6 46 -30 3 -29 3 -29 -117 -59 -60 -14 -91
-50 -91 -104 0 -52 27 -89 76 -105 45 -15 106 0 128 32 l15 22 21 -27 c17 -22
30 -27 64 -27 23 0 45 2 48 5 11 11 -5 64 -22 68 -15 4 -18 20 -22 118 -5 128
-17 160 -70 178 -42 15 -105 13 -151 -3z m133 -211 c0 -68 -58 -112 -106 -80
-45 29 -28 70 37 90 62 19 69 18 69 -10z"/>
<path d="M13870 1597 c-105 -55 -125 -237 -35 -316 79 -69 219 -62 268 13 16
24 16 26 -14 47 l-30 21 -25 -23 c-36 -34 -108 -34 -135 0 -10 13 -19 34 -19
47 0 24 0 24 120 24 l120 0 0 54 c0 127 -130 197 -250 133z m148 -74 c6 -9 12
-25 12 -35 0 -16 -9 -18 -75 -18 -77 0 -84 4 -64 41 21 41 100 48 127 12z"/>
<path d="M8410 1606 c0 -2 32 -85 70 -185 39 -100 70 -190 70 -200 0 -31 -38
-56 -83 -55 -46 0 -57 -8 -57 -47 0 -19 6 -28 23 -33 68 -18 135 6 171 61 14
21 56 121 95 223 38 102 74 197 80 213 l11 27 -49 0 -48 0 -43 -125 c-23 -69
-45 -125 -49 -125 -4 0 -27 56 -51 125 l-45 125 -47 0 c-27 0 -48 -2 -48 -4z"/>
<path d="M9280 1467 c0 -119 3 -148 19 -177 35 -66 136 -76 193 -20 l28 28 0
-29 c0 -28 2 -29 45 -29 l45 0 0 185 0 185 -44 0 -44 0 -3 -126 c-4 -123 -5
-126 -32 -150 -32 -27 -64 -31 -93 -10 -17 13 -19 29 -22 150 l-4 136 -44 0
-44 0 0 -143z"/>
<path d="M10440 1425 l0 -185 50 0 50 0 0 185 0 185 -50 0 -50 0 0 -185z"/>
<path d="M12510 1425 l0 -185 50 0 50 0 0 185 0 185 -50 0 -50 0 0 -185z"/>
<path d="M12672 1601 c2 -4 32 -88 68 -185 l64 -176 57 0 56 0 63 173 c35 94
65 178 68 185 3 10 -7 12 -44 10 l-48 -3 -44 -127 c-25 -70 -48 -125 -53 -123
-4 3 -26 61 -49 130 l-42 125 -50 0 c-27 0 -48 -4 -46 -9z"/>
</g>
</svg>
