<?xml version="1.0" standalone="no"?>
<!DOCTYPE svg PUBLIC "-//W3C//DTD SVG 20010904//EN"
 "http://www.w3.org/TR/2001/REC-SVG-20010904/DTD/svg10.dtd">
<svg version="1.0" xmlns="http://www.w3.org/2000/svg"
 width="1920.000000pt" height="1080.000000pt" viewBox="0 0 1920.000000 1080.000000"
 preserveAspectRatio="xMidYMid meet">

<g transform="translate(0.000000,1080.000000) scale(0.100000,-0.100000)"
fill="#000000" stroke="none">
<path d="M10109 6131 c-20 -4 -53 -17 -73 -29 -21 -12 -48 -22 -61 -22 -14 0
-43 -7 -66 -17 -38 -15 -106 -16 -780 -10 -432 3 -751 2 -770 -3 -61 -18 -58
3 -59 -567 0 -488 -1 -522 -17 -527 -10 -3 -63 -15 -118 -26 -55 -12 -111 -29
-125 -39 -14 -10 -35 -21 -48 -25 -28 -9 -55 -61 -48 -91 5 -19 -1 -28 -30
-46 -49 -30 -74 -74 -74 -131 0 -67 9 -85 106 -204 87 -106 88 -108 142 -263
69 -199 69 -201 47 -217 -20 -15 -21 -3 22 -156 5 -17 -12 -18 -251 -18 -242
0 -256 -1 -247 -18 5 -9 57 -64 115 -122 l105 -105 183 -5 183 -5 40 -120 c46
-137 56 -158 106 -211 44 -49 81 -69 249 -138 602 -244 1308 -246 1914 -5 157
63 172 73 196 126 34 77 78 215 85 268 13 94 -13 85 253 85 l236 0 113 115
c62 64 113 120 113 125 0 6 -128 10 -341 10 l-342 0 6 101 5 100 -31 19 c-33
20 -68 28 -186 38 l-73 7 -59 113 -59 112 199 0 c185 0 200 1 225 21 l26 20 0
865 c0 545 -4 872 -10 884 -18 34 -65 40 -330 40 l-258 0 -52 35 c-29 19 -62
35 -75 35 -13 0 -29 2 -37 4 -7 2 -29 0 -49 -3z m-722 -171 c-28 -18 -49 -39
-53 -55 -3 -14 -13 -25 -23 -25 -24 -1 -103 -38 -127 -60 -19 -19 -41 -20
-390 -22 -237 -2 -369 -7 -369 -13 0 -6 127 -11 357 -13 l356 -2 -24 -43 c-14
-26 -25 -64 -26 -92 l-3 -49 45 -9 c25 -5 48 -12 53 -16 4 -4 0 -29 -9 -55
-16 -47 -16 -148 1 -230 9 -43 60 -138 89 -165 27 -26 33 -50 15 -68 -13 -13
-39 -123 -42 -182 -2 -25 3 -77 9 -116 20 -108 24 -100 -73 -129 -202 -62
-277 -112 -362 -245 l-52 -81 -180 0 c-105 0 -188 4 -200 10 -13 7 -19 21 -19
44 0 32 1 32 74 50 118 28 114 11 77 313 -35 290 -34 289 -108 278 l-43 -6 0
490 c0 269 3 496 6 505 5 14 62 16 537 16 l531 0 -47 -30z m449 21 c-3 -5 -15
-7 -26 -4 -28 7 -25 13 6 13 14 0 23 -4 20 -9z m1022 -831 c2 -776 1 -836 -15
-847 -12 -9 -71 -13 -209 -13 l-192 0 -23 38 c-67 108 -159 173 -324 227 -61
20 -113 39 -117 43 -5 5 -24 46 -43 93 -41 100 -25 94 -267 104 l-168 8 -42
-35 c-24 -19 -49 -38 -56 -42 -12 -7 19 63 54 124 8 14 25 44 36 68 23 44 42
53 52 26 5 -14 23 -16 134 -12 112 4 137 9 215 38 113 41 191 109 239 208 32
65 33 69 33 202 0 74 -4 156 -8 181 -7 42 -6 46 18 59 14 7 33 31 42 52 9 21
22 38 28 38 6 0 26 13 45 30 l35 29 193 1 c150 0 193 3 190 13 -4 9 -51 13
-182 15 -164 2 -177 4 -171 20 21 51 26 86 17 128 l-10 44 247 -2 246 -3 3
-835z m-2820 -345 c12 -25 22 -47 22 -50 0 -3 -19 -3 -42 -1 -39 3 -43 6 -46
34 -3 27 18 62 36 62 4 0 17 -21 30 -45z m262 -485 c0 -30 7 -47 25 -65 24
-25 26 -25 215 -25 104 0 190 -2 190 -5 0 -3 -29 -63 -64 -133 -42 -83 -71
-158 -85 -217 -39 -162 -55 -173 -102 -67 -82 182 -103 222 -116 220 -15 -3
-45 60 -83 174 -11 31 -29 79 -40 107 l-20 51 40 0 40 0 0 -40z"/>
<path d="M8552 5934 c-41 -29 -19 -96 31 -96 36 0 57 19 57 52 0 28 -27 60
-51 60 -8 0 -25 -7 -37 -16z"/>
<path d="M8730 5930 c-11 -11 -20 -25 -20 -31 0 -19 20 -48 40 -59 41 -22 89
33 67 75 -20 40 -56 46 -87 15z"/>
<path d="M8917 5932 c-26 -28 -21 -69 9 -88 24 -16 27 -16 52 3 34 25 39 56
13 82 -26 26 -53 27 -74 3z"/>
<path d="M10457 5934 c-18 -18 -1 -24 69 -24 56 0 75 3 72 13 -5 13 -129 23
-141 11z"/>
<path d="M10453 5888 c2 -9 26 -13 72 -13 46 0 70 4 73 13 3 9 -16 12 -73 12
-57 0 -76 -3 -72 -12z"/>
<path d="M10450 5850 c0 -6 32 -10 75 -10 43 0 75 4 75 10 0 6 -32 10 -75 10
-43 0 -75 -4 -75 -10z"/>
<path d="M5515 2730 c4 -6 92 -10 231 -10 143 0 224 4 224 10 0 6 -84 10 -231
10 -151 0 -228 -3 -224 -10z"/>
<path d="M5272 1754 c-59 -41 4 -118 69 -84 39 21 11 100 -36 100 -6 0 -21 -7
-33 -16z"/>
<path d="M8430 1750 c-11 -11 -20 -28 -20 -38 0 -43 73 -70 100 -37 18 22 15
66 -6 82 -25 19 -51 16 -74 -7z"/>
<path d="M13032 1754 c-59 -41 4 -118 69 -84 39 21 11 100 -36 100 -6 0 -21
-7 -33 -16z"/>
<path d="M15002 1754 c-59 -41 4 -118 69 -84 39 21 11 100 -36 100 -6 0 -21
-7 -33 -16z"/>
<path d="M5710 1665 l0 -94 -36 24 c-70 48 -162 24 -207 -53 -10 -17 -21 -58
-24 -90 -10 -109 33 -192 109 -212 50 -14 90 -5 128 27 l30 25 0 -26 c0 -24 3
-26 45 -26 l45 0 0 260 0 260 -45 0 -45 0 0 -95z m-35 -147 c55 -49 37 -180
-28 -201 -38 -12 -82 7 -97 44 -19 46 -8 138 20 161 30 24 73 23 105 -4z"/>
<path d="M6770 1500 l0 -260 44 0 44 0 3 124 c4 115 6 126 28 150 29 31 80 35
104 8 14 -15 17 -42 17 -150 l0 -132 46 0 45 0 -3 160 c-3 158 -3 160 -30 186
-40 40 -110 44 -161 10 -21 -14 -40 -26 -42 -26 -3 0 -5 43 -5 95 l0 95 -45 0
-45 0 0 -260z"/>
<path d="M9850 1500 l0 -260 50 0 c44 0 50 3 50 20 0 20 1 20 31 -2 23 -17 44
-23 80 -22 61 1 95 24 127 85 20 37 23 55 19 120 -4 90 -29 138 -84 164 -47
23 -116 16 -149 -16 l-24 -22 0 96 0 97 -50 0 -50 0 0 -260z m235 15 c21 -20
25 -34 25 -87 0 -73 -16 -103 -59 -113 -41 -9 -89 18 -97 53 -3 15 -8 35 -10
44 -8 29 15 96 39 113 32 22 74 19 102 -10z"/>
<path d="M12003 1721 c-49 -23 -73 -62 -73 -121 0 -84 45 -124 169 -151 84
-18 115 -65 71 -109 -38 -38 -149 -18 -186 34 -15 21 -15 21 -44 -14 -25 -31
-27 -37 -16 -55 7 -11 35 -31 61 -45 60 -30 171 -34 222 -7 66 35 96 106 74
178 -16 53 -62 85 -150 105 -89 20 -117 40 -107 78 12 50 108 60 167 17 l27
-20 27 35 27 36 -23 16 c-63 45 -174 55 -246 23z"/>
<path d="M4720 1485 l0 -245 50 0 49 0 3 113 3 112 108 3 107 3 0 -116 0 -115
50 0 50 0 0 245 0 245 -50 0 -50 0 0 -90 0 -90 -110 0 -110 0 0 90 0 90 -50 0
-50 0 0 -245z"/>
<path d="M11432 1536 c3 -179 5 -197 24 -223 81 -109 267 -109 348 0 19 26 21
44 24 223 l4 194 -46 0 -46 0 0 -147 c-1 -226 -16 -263 -110 -263 -94 0 -109
37 -110 263 l0 147 -46 0 -45 0 3 -194z"/>
<path d="M12380 1484 l0 -246 148 4 c122 2 153 6 175 21 89 58 87 200 -2 236
l-31 13 30 28 c25 24 30 35 30 77 0 51 -18 82 -57 102 -13 6 -77 11 -157 11
l-136 0 0 -246z m242 159 c10 -9 18 -29 18 -44 0 -45 -23 -59 -96 -59 l-64 0
0 60 0 60 62 0 c43 0 67 -5 80 -17z m30 -200 c24 -22 24 -77 -2 -103 -16 -16
-33 -20 -95 -20 l-75 0 0 70 0 70 77 0 c57 0 81 -4 95 -17z"/>
<path d="M6525 1691 c-26 -5 -30 -11 -33 -44 -3 -32 -7 -37 -28 -37 -21 0 -24
-5 -24 -35 0 -31 3 -35 25 -35 l25 0 0 -102 c0 -121 16 -163 70 -191 36 -18
93 -17 131 3 16 9 17 13 5 42 -12 28 -18 31 -57 32 l-44 1 -3 108 -3 107 51 0
50 0 0 35 0 35 -50 0 -50 0 0 45 c0 49 -2 50 -65 36z"/>
<path d="M9445 1691 c-26 -5 -30 -11 -33 -44 -3 -32 -7 -37 -28 -37 -21 0 -24
-5 -24 -35 0 -31 3 -35 25 -35 l25 0 0 -102 c0 -121 16 -163 70 -191 36 -18
93 -17 131 3 16 9 17 13 5 42 -12 28 -18 31 -57 32 l-44 1 -3 108 -3 107 51 0
50 0 0 35 0 35 -50 0 -50 0 0 45 c0 49 -2 50 -65 36z"/>
<path d="M14745 1691 c-26 -5 -30 -11 -33 -44 -3 -32 -7 -37 -28 -37 -21 0
-24 -5 -24 -35 0 -31 3 -35 25 -35 l25 0 0 -102 c0 -121 16 -163 70 -191 36
-18 93 -17 131 3 16 9 17 13 5 42 -12 28 -18 31 -57 32 l-44 1 -3 108 -3 107
51 0 50 0 0 35 0 35 -50 0 -50 0 0 45 c0 49 -2 50 -65 36z"/>
<path d="M5980 1597 c-105 -55 -125 -237 -35 -316 79 -69 219 -62 268 13 16
24 16 26 -14 47 l-30 21 -25 -23 c-36 -34 -108 -34 -135 0 -10 13 -19 34 -19
47 0 24 0 24 120 24 l120 0 0 54 c0 127 -130 197 -250 133z m148 -74 c6 -9 12
-25 12 -35 0 -16 -9 -18 -75 -18 -77 0 -84 4 -64 41 21 41 100 48 127 12z"/>
<path d="M7280 1598 c-29 -15 -53 -37 -67 -63 -45 -79 -22 -227 41 -268 71
-47 175 -45 231 5 43 37 44 53 5 73 -30 15 -32 15 -50 -7 -14 -18 -28 -23 -64
-23 -51 0 -84 24 -88 65 l-3 25 123 3 122 3 0 47 c0 96 -53 153 -147 160 -46
3 -67 -1 -103 -20z m135 -73 c45 -44 34 -55 -50 -55 -61 0 -75 3 -75 15 0 25
47 65 75 65 14 0 37 -11 50 -25z"/>
<path d="M7735 1589 l-35 -31 0 26 c0 24 -3 26 -45 26 l-45 0 0 -185 0 -185
50 0 50 0 0 130 c0 117 2 132 20 150 27 27 75 26 94 -2 13 -18 16 -51 16 -150
l0 -128 44 0 44 0 4 129 c3 146 14 171 73 171 51 0 55 -11 55 -162 l0 -138 51
0 51 0 -4 148 c-3 81 -10 159 -16 174 -26 63 -136 77 -191 24 l-28 -27 -31 30
c-25 26 -39 31 -76 31 -36 0 -52 -6 -81 -31z"/>
<path d="M9110 1609 c-66 -27 -95 -91 -65 -148 16 -32 46 -50 124 -73 53 -16
71 -39 51 -63 -19 -23 -93 -15 -124 14 l-22 21 -29 -30 c-28 -29 -28 -30 -10
-50 28 -30 115 -53 172 -44 143 21 154 190 16 223 -77 19 -103 32 -103 52 0
40 90 50 121 13 11 -13 16 -11 40 12 24 23 26 30 16 42 -30 37 -130 54 -187
31z"/>
<path d="M10927 1606 c-37 -13 -77 -42 -77 -55 0 -3 9 -17 19 -30 l18 -24 36
22 c26 16 48 21 79 19 38 -3 43 -6 46 -30 3 -29 3 -29 -117 -59 -60 -14 -91
-50 -91 -104 0 -52 27 -89 76 -105 45 -15 106 0 128 32 l15 22 21 -27 c17 -22
30 -27 64 -27 23 0 45 2 48 5 11 11 -5 64 -22 68 -15 4 -18 20 -22 118 -5 128
-17 160 -70 178 -42 15 -105 13 -151 -3z m133 -211 c0 -68 -58 -112 -106 -80
-45 29 -28 70 37 90 62 19 69 18 69 -10z"/>
<path d="M13380 1613 c-8 -3 -27 -17 -42 -31 l-28 -26 0 27 c0 25 -3 27 -45
27 l-45 0 0 -185 0 -185 44 0 44 0 3 124 c4 115 6 126 28 150 29 31 80 35 104
8 14 -15 17 -42 17 -150 l0 -132 45 0 45 0 0 155 0 155 -28 31 c-23 26 -37 32
-78 35 -27 2 -56 1 -64 -3z"/>
<path d="M13704 1606 c-43 -19 -64 -53 -64 -104 0 -56 26 -80 117 -108 56 -17
69 -24 71 -43 7 -46 -63 -56 -121 -17 l-35 24 -29 -30 -28 -30 30 -24 c36 -29
120 -48 172 -38 23 4 51 20 71 40 27 27 32 39 32 78 0 58 -28 88 -98 105 -64
17 -96 33 -100 54 -7 37 90 46 119 11 10 -13 16 -11 41 12 15 15 28 32 28 36
0 17 -85 48 -130 47 -25 0 -59 -6 -76 -13z"/>
<path d="M14085 1606 c-123 -54 -140 -266 -27 -342 68 -46 179 -38 234 16 15
16 28 32 28 37 0 4 -14 16 -31 26 -30 17 -31 17 -61 -8 -32 -27 -67 -32 -101
-13 -30 16 -46 39 -47 66 0 22 2 22 119 22 99 0 120 3 125 16 9 24 -5 96 -25
130 -34 56 -143 81 -214 50z m114 -69 c14 -6 28 -24 32 -39 l7 -28 -79 0 c-43
0 -79 2 -79 5 0 17 26 55 44 63 28 14 46 14 75 -1z"/>
<path d="M14554 1606 c-18 -8 -37 -22 -43 -33 -9 -16 -10 -15 -11 10 0 25 -3
27 -45 27 l-45 0 0 -185 0 -185 45 0 45 0 0 110 c0 150 16 180 95 180 30 0 33
3 40 36 3 20 5 37 3 39 -12 12 -58 12 -84 1z"/>
<path d="M15284 1609 c-40 -11 -90 -67 -103 -116 -29 -102 6 -200 84 -241 41
-21 141 -20 183 2 98 51 120 220 41 311 -44 50 -125 67 -205 44z m111 -75 c26
-10 45 -59 45 -114 0 -44 -5 -56 -29 -81 -39 -38 -74 -38 -113 1 -29 29 -30
34 -26 97 3 54 8 69 27 84 23 19 65 24 96 13z"/>
<path d="M15763 1600 c-18 -11 -33 -24 -33 -30 0 -5 -4 -10 -10 -10 -5 0 -10
11 -10 25 0 23 -4 25 -45 25 l-45 0 0 -185 0 -185 50 0 50 0 0 125 c0 120 1
127 25 150 29 30 85 34 106 8 10 -11 15 -55 17 -150 l4 -133 44 0 44 0 0 140
c0 159 -11 199 -59 224 -41 22 -99 20 -138 -4z"/>
<path d="M5260 1425 l0 -185 45 0 45 0 0 185 0 185 -45 0 -45 0 0 -185z"/>
<path d="M8420 1396 c0 -231 -3 -245 -54 -232 -21 5 -24 2 -29 -31 -4 -20 -4
-39 -1 -42 3 -4 30 -6 60 -6 45 0 58 4 80 26 36 37 43 83 44 307 l0 192 -50 0
-50 0 0 -214z"/>
<path d="M8620 1456 c0 -139 2 -156 20 -179 42 -53 136 -58 181 -11 29 31 39
30 39 -1 0 -23 4 -25 45 -25 l45 0 0 185 0 185 -50 0 -50 0 0 -117 c0 -74 -5
-127 -13 -143 -17 -34 -69 -48 -102 -26 -25 16 -25 18 -25 151 l0 135 -45 0
-45 0 0 -154z"/>
<path d="M10260 1602 c0 -4 31 -89 70 -188 38 -98 70 -184 70 -190 0 -7 -8
-22 -19 -35 -15 -19 -29 -23 -67 -24 -46 0 -48 -1 -55 -33 -6 -30 -4 -34 20
-44 33 -13 104 -3 137 18 14 10 35 35 46 58 23 45 168 422 168 437 0 5 -20 9
-44 9 l-44 0 -41 -116 c-23 -63 -41 -120 -41 -125 0 -5 -4 -9 -9 -9 -5 0 -21
35 -37 78 -64 179 -56 167 -108 170 -25 2 -46 -1 -46 -6z"/>
<path d="M13020 1425 l0 -185 45 0 45 0 0 185 0 185 -45 0 -45 0 0 -185z"/>
<path d="M14990 1425 l0 -185 45 0 45 0 0 185 0 185 -45 0 -45 0 0 -185z"/>
</g>
</svg>
