<?xml version="1.0" standalone="no"?>
<!DOCTYPE svg PUBLIC "-//W3C//DTD SVG 20010904//EN"
 "http://www.w3.org/TR/2001/REC-SVG-20010904/DTD/svg10.dtd">
<svg version="1.0" xmlns="http://www.w3.org/2000/svg"
 width="1920.000000pt" height="1080.000000pt" viewBox="0 0 1920.000000 1080.000000"
 preserveAspectRatio="xMidYMid meet">

<g transform="translate(0.000000,1080.000000) scale(0.100000,-0.100000)"
fill="#000000" stroke="none">
<path d="M9976 7936 c-58 -22 -102 -71 -131 -146 -42 -111 -46 -128 -28 -146
15 -14 9 -15 -63 -9 -95 9 -219 -8 -254 -34 -46 -33 -75 -99 -75 -173 -1 -54
-5 -72 -22 -90 -11 -13 -26 -33 -32 -45 -17 -33 -13 -105 6 -133 12 -16 20
-54 24 -108 12 -148 93 -268 225 -333 l62 -31 6 -56 c4 -32 9 -70 12 -86 l6
-29 157 9 c189 10 214 10 267 0 38 -7 43 -6 49 13 5 15 -2 31 -24 58 -17 21
-31 41 -31 46 0 5 43 55 96 110 190 202 223 286 194 489 -13 87 -42 164 -92
238 l-40 60 26 30 c48 58 58 159 22 228 -57 111 -242 182 -360 138z m-569
-768 c-3 -7 -5 -2 -5 12 0 14 2 19 5 13 2 -7 2 -19 0 -25z"/>
<path d="M7730 7874 c-156 -79 -403 -377 -480 -583 l-21 -54 22 -88 c25 -103
19 -133 -38 -201 -105 -126 -213 -457 -213 -655 0 -104 17 -150 80 -218 66
-71 100 -130 100 -173 0 -38 -29 -80 -128 -181 -46 -46 -94 -104 -109 -129
l-27 -45 -119 7 c-66 3 -213 6 -327 6 l-207 0 -154 135 c-84 74 -160 135 -169
135 -30 0 -218 -77 -269 -110 -29 -18 -80 -63 -114 -100 -53 -58 -68 -69 -106
-75 -56 -9 -118 -63 -127 -111 -6 -31 7 -296 36 -782 11 -173 22 -209 79 -244
l36 -23 800 -3 c440 -2 819 0 842 3 47 7 96 42 118 85 11 22 17 129 26 498
l12 471 -25 39 c-15 21 -40 45 -57 52 -17 7 -31 16 -31 20 0 19 91 93 163 132
138 76 231 141 251 178 27 45 25 119 -4 190 -41 99 -26 316 40 575 22 87 27
125 23 180 -5 75 37 379 55 397 6 6 34 7 68 2 49 -6 64 -13 91 -40 l32 -34 83
31 c46 16 122 46 171 66 57 23 96 33 111 29 13 -3 66 -38 117 -76 110 -84 132
-87 137 -22 4 56 -12 133 -42 197 -13 27 -27 68 -31 89 -3 22 -18 63 -32 90
-54 109 -137 164 -259 173 l-74 6 0 44 c0 24 -7 57 -15 72 -21 41 -95 75 -175
79 -59 3 -72 0 -140 -34z"/>
<path d="M12538 7746 c-9 -9 -19 -30 -23 -47 -9 -39 -27 -45 -75 -26 -36 14
-44 14 -102 -4 -35 -11 -74 -28 -87 -37 -13 -9 -36 -24 -50 -33 -89 -53 -77
-219 22 -290 51 -37 82 -38 101 -1 22 42 60 72 97 78 52 9 76 -17 96 -103 l17
-72 46 -6 c61 -8 67 -13 85 -65 22 -63 62 -112 88 -108 15 2 23 11 25 28 7 55
23 88 50 99 52 21 143 -25 168 -85 8 -20 14 -69 14 -123 0 -86 1 -90 27 -111
35 -27 96 -21 132 14 22 22 23 32 26 142 1 97 6 130 25 179 35 92 37 143 6
210 -44 97 -207 324 -250 348 -13 7 -74 12 -166 12 -80 0 -170 4 -201 9 -45 7
-58 5 -71 -8z"/>
<path d="M8001 5975 c-72 -61 -65 -221 16 -342 25 -37 52 -83 60 -101 13 -32
15 -33 36 -18 12 8 55 37 94 63 l73 48 0 56 c0 50 -26 153 -52 204 -16 30 -70
85 -100 101 -42 22 -92 18 -127 -11z"/>
<path d="M12310 5551 c-154 -7 -190 -20 -222 -83 -19 -37 -20 -49 -9 -355 11
-299 23 -493 37 -589 8 -55 35 -99 76 -121 31 -17 85 -18 833 -21 440 -2 819
0 843 3 52 8 106 52 121 98 5 18 15 236 21 486 10 445 10 455 -10 495 -27 57
-64 76 -168 86 -93 10 -1295 10 -1522 1z"/>
<path d="M8710 5532 c-19 -9 -45 -32 -57 -51 -20 -29 -23 -47 -23 -127 0 -155
40 -837 51 -871 16 -51 69 -90 131 -98 29 -3 412 -5 850 -3 787 3 797 3 824
24 66 49 68 56 76 282 3 114 8 332 10 484 3 267 2 277 -18 304 -11 15 -33 37
-48 48 -27 21 -36 21 -894 23 -801 2 -870 1 -902 -15z"/>
<path d="M7942 1754 c-59 -41 4 -118 69 -84 39 21 11 100 -36 100 -6 0 -21 -7
-33 -16z"/>
<path d="M13490 1750 c-24 -24 -25 -38 -4 -68 28 -41 104 -18 104 31 0 23 -36
57 -60 57 -11 0 -29 -9 -40 -20z"/>
<path d="M9502 1526 c3 -217 4 -236 23 -256 27 -30 63 -43 100 -36 29 6 31 9
27 41 -3 25 -9 35 -26 37 -21 3 -21 7 -24 226 l-2 222 -51 0 -51 0 4 -234z"/>
<path d="M11730 1500 l0 -260 45 0 c38 0 45 3 45 20 0 25 4 25 41 -2 23 -17
44 -23 80 -22 85 1 134 56 145 160 15 145 -64 242 -179 220 -19 -3 -43 -15
-55 -26 -12 -11 -24 -20 -27 -20 -3 0 -5 43 -5 95 l0 95 -45 0 -45 0 0 -260z
m230 22 c18 -14 24 -32 28 -75 6 -70 -10 -111 -48 -127 -69 -28 -126 33 -116
125 9 82 80 122 136 77z"/>
<path d="M13680 1540 c0 -255 5 -280 65 -300 20 -6 47 -9 61 -6 20 5 24 13 24
40 0 28 -4 35 -22 38 -23 3 -23 3 -26 226 l-2 222 -50 0 -50 0 0 -220z"/>
<path d="M6490 1485 l0 -245 45 0 45 0 0 100 c0 112 3 117 65 106 48 -9 60
-25 91 -121 l28 -85 48 0 c26 0 48 4 48 8 0 15 -47 147 -64 181 -9 17 -24 35
-32 38 -18 7 -18 23 0 23 8 0 28 16 45 35 36 41 41 87 15 140 -25 53 -63 65
-208 65 l-126 0 0 -245z m228 159 c16 -11 22 -25 22 -53 0 -52 -19 -66 -94
-66 l-61 0 -3 54 c-2 29 -1 60 2 67 8 20 105 18 134 -2z"/>
<path d="M7388 1693 c-25 -4 -28 -8 -28 -44 0 -37 -2 -39 -30 -39 -28 0 -30
-3 -30 -35 0 -32 2 -35 30 -35 l30 0 0 -112 c0 -94 3 -118 20 -145 22 -37 80
-58 135 -47 47 8 58 24 44 62 -9 28 -13 30 -45 25 -56 -9 -64 5 -64 118 l0 99
55 0 55 0 0 35 0 35 -55 0 -55 0 0 45 c0 48 1 47 -62 38z"/>
<path d="M10545 1691 c-26 -5 -30 -11 -33 -44 -3 -32 -7 -37 -28 -37 -21 0
-24 -5 -24 -35 0 -31 3 -35 25 -35 l25 0 0 -102 c0 -121 16 -163 70 -191 36
-18 93 -17 131 3 16 9 17 13 5 42 -12 28 -18 31 -57 32 l-44 1 -3 108 -3 107
51 0 50 0 0 35 0 35 -50 0 -50 0 0 45 c0 49 -2 50 -65 36z"/>
<path d="M7010 1597 c-105 -55 -125 -237 -35 -316 79 -69 219 -62 268 13 16
24 16 26 -14 47 l-30 21 -25 -23 c-36 -34 -108 -34 -135 0 -10 13 -19 34 -19
47 0 24 0 24 120 24 l120 0 0 54 c0 127 -130 197 -250 133z m148 -74 c6 -9 12
-25 12 -35 0 -16 -9 -18 -75 -18 -77 0 -84 4 -64 41 21 41 100 48 127 12z"/>
<path d="M7783 1610 c-12 -5 -28 -18 -35 -30 -17 -27 -28 -25 -28 5 0 23 -4
25 -45 25 l-45 0 0 -185 0 -185 49 0 49 0 4 126 c3 119 4 127 27 146 17 13 36
18 60 16 34 -3 35 -1 43 36 5 21 7 41 5 42 -10 10 -65 12 -84 4z"/>
<path d="M8200 1597 c-105 -55 -125 -237 -35 -316 79 -69 219 -62 268 13 16
24 16 26 -14 47 l-30 21 -25 -23 c-36 -34 -108 -34 -135 0 -10 13 -19 34 -19
47 0 24 0 24 120 24 l120 0 0 54 c0 127 -130 197 -250 133z m148 -74 c6 -9 12
-25 12 -35 0 -16 -9 -18 -75 -18 -77 0 -84 4 -64 41 21 41 100 48 127 12z"/>
<path d="M9010 1598 c-29 -15 -53 -37 -67 -63 -45 -79 -22 -227 41 -268 71
-47 175 -45 231 5 43 37 44 53 5 73 -30 15 -32 15 -50 -7 -14 -18 -28 -23 -64
-23 -51 0 -84 24 -88 65 l-3 25 123 3 122 3 0 47 c0 96 -53 153 -147 160 -46
3 -67 -1 -103 -20z m135 -73 c45 -44 34 -55 -50 -55 -61 0 -75 3 -75 15 0 25
47 65 75 65 14 0 37 -11 50 -25z"/>
<path d="M9814 1609 c-40 -11 -90 -67 -103 -116 -29 -102 6 -200 84 -241 41
-21 141 -20 183 2 98 51 120 220 41 311 -44 50 -125 67 -205 44z m111 -75 c26
-10 45 -59 45 -114 0 -44 -5 -56 -29 -81 -39 -38 -74 -38 -113 1 -29 29 -30
34 -26 97 3 54 8 69 27 84 23 19 65 24 96 13z"/>
<path d="M10210 1609 c-66 -27 -95 -91 -65 -148 16 -32 46 -50 124 -73 53 -16
71 -39 51 -63 -19 -23 -93 -15 -124 14 l-22 21 -29 -30 c-28 -29 -28 -30 -10
-50 28 -30 115 -53 172 -44 143 21 154 190 16 223 -77 19 -103 32 -103 52 0
40 90 50 121 13 11 -13 16 -11 40 12 24 23 26 30 16 42 -30 37 -130 54 -187
31z"/>
<path d="M11440 1609 c-66 -27 -95 -91 -65 -148 16 -32 46 -50 124 -73 53 -16
71 -39 51 -63 -19 -23 -93 -15 -124 14 l-22 21 -29 -30 c-28 -29 -28 -30 -10
-50 28 -30 115 -53 172 -44 143 21 154 190 16 223 -77 19 -103 32 -103 52 0
40 90 50 121 13 11 -13 16 -11 40 12 24 23 26 30 16 42 -30 37 -130 54 -187
31z"/>
<path d="M12410 1597 c-105 -55 -125 -237 -35 -316 79 -69 219 -62 268 13 16
24 16 26 -14 47 l-30 21 -25 -23 c-36 -34 -108 -34 -135 0 -10 13 -19 34 -19
47 0 24 0 24 120 24 l120 0 0 54 c0 127 -130 197 -250 133z m148 -74 c6 -9 12
-25 12 -35 0 -16 -9 -18 -75 -18 -77 0 -84 4 -64 41 21 41 100 48 127 12z"/>
<path d="M12807 1606 c-37 -13 -77 -42 -77 -55 0 -3 9 -17 19 -30 l18 -24 36
22 c26 16 48 21 79 19 38 -3 43 -6 46 -30 3 -29 3 -29 -117 -59 -60 -14 -91
-50 -91 -104 0 -52 27 -89 76 -105 45 -15 106 0 128 32 l15 22 21 -27 c17 -22
30 -27 64 -27 23 0 45 2 48 5 11 11 -5 64 -22 68 -15 4 -18 20 -22 118 -5 128
-17 160 -70 178 -42 15 -105 13 -151 -3z m133 -211 c0 -68 -58 -112 -106 -80
-45 29 -28 70 37 90 62 19 69 18 69 -10z"/>
<path d="M13184 1606 c-42 -19 -64 -53 -64 -98 0 -55 39 -94 115 -113 67 -17
90 -37 74 -66 -14 -28 -77 -25 -122 5 l-35 24 -25 -26 c-31 -34 -26 -47 26
-74 54 -28 148 -30 195 -4 46 24 68 77 53 128 -14 46 -39 64 -123 86 -56 15
-63 20 -66 44 -4 38 43 47 99 20 l39 -20 20 26 c26 32 25 36 -7 57 -35 23
-138 30 -179 11z"/>
<path d="M7930 1425 l0 -185 45 0 45 0 0 185 0 185 -45 0 -45 0 0 -185z"/>
<path d="M8492 1601 c2 -4 32 -88 68 -185 l64 -176 57 0 56 0 63 173 c35 94
65 178 68 185 3 10 -7 12 -44 10 l-48 -3 -44 -127 c-25 -70 -48 -125 -53 -123
-4 3 -26 61 -49 130 l-42 125 -50 0 c-27 0 -48 -4 -46 -9z"/>
<path d="M10950 1456 c0 -139 2 -156 20 -179 42 -53 136 -58 181 -11 29 31 39
30 39 -1 0 -23 4 -25 45 -25 l45 0 0 185 0 185 -50 0 -50 0 0 -117 c0 -74 -5
-127 -13 -143 -17 -34 -69 -48 -102 -26 -25 16 -25 18 -25 151 l0 135 -45 0
-45 0 0 -154z"/>
<path d="M13480 1425 l0 -185 50 0 50 0 0 185 0 185 -50 0 -50 0 0 -185z"/>
<path d="M13860 1602 c0 -4 31 -89 70 -188 38 -98 70 -184 70 -190 0 -7 -8
-22 -19 -35 -15 -19 -29 -23 -67 -24 -46 0 -48 -1 -55 -33 -6 -30 -4 -34 20
-44 33 -13 104 -3 137 18 14 10 35 35 46 58 23 45 168 422 168 437 0 5 -20 9
-44 9 l-44 0 -41 -116 c-23 -63 -41 -120 -41 -125 0 -5 -4 -9 -9 -9 -5 0 -21
35 -37 78 -64 179 -56 167 -108 170 -25 2 -46 -1 -46 -6z"/>
</g>
</svg>
